<svg width="65" height="57" fill="none" xmlns="http://www.w3.org/2000/svg"><path d="M61.508 56.886H3.491C1.566 56.886 0 55.344 0 53.448c0-1.12.86-2.047 1.964-2.173a7.16 7.16 0 012.922-4.862c-1.179-1.682-2.15-4.41-2.15-5.85 0-2.126 1.8-4.28 5.24-4.28.526 0 .952.42.952.938a.945.945 0 01-.952.938c-2.291 0-3.335 1.247-3.335 2.405 0 1.132.952 3.664 1.923 4.942a7.348 7.348 0 012.625-.482 7.31 7.31 0 016.332 3.631 7.31 7.31 0 016.333-3.63 7.312 7.312 0 016.212 3.43c1.056-1.941 3.095-2.974 5.99-2.974.526 0 .952.42.952.938 0 2.078-.558 3.708-1.624 4.842h6.928a9.761 9.761 0 01-1.533-1.962c-1.552-2.576-2.372-6.153-2.372-10.342 0-3.853.595-7.798 1.677-11.108a.956.956 0 011.198-.605c.5.158.776.687.615 1.18-1.023 3.129-1.586 6.87-1.586 10.533 0 5.964 2.174 12.303 6.202 12.303h4.416c4.028 0 6.202-6.339 6.202-12.303 0-4.473-.83-8.986-2.276-12.382-1.105-2.594-3.066-5.686-6.134-5.686-2.598 0-4.379 2.279-5.416 4.191a.96.96 0 01-1.288.386.93.93 0 01-.392-1.27c.704-1.296 1.497-2.36 2.365-3.178-4.685.27-8.663.963-12.008 2.091l1.409 1.387.342-.337a.963.963 0 011.347 0 .928.928 0 010 1.326l-.343.337 2.42 2.384a.927.927 0 010 1.326.963.963 0 01-1.346 0l-2.42-2.384-4.077 4.015 4.077 4.015 1.15-1.133a.963.963 0 011.347 0 .927.927 0 010 1.326l-1.15 1.133 1.66 1.636a.927.927 0 010 1.325.963.963 0 01-1.346 0L31.39 37.83l-1.854 1.825a.962.962 0 01-1.346 0 .927.927 0 010-1.326l1.853-1.825-4.077-4.015-4.077 4.015 2.42 2.384a.928.928 0 010 1.326.963.963 0 01-1.346 0l-2.42-2.384-3.946 3.886a.962.962 0 01-1.347 0 .927.927 0 010-1.326l3.946-3.886-2.687-2.646c-1.24 1.469-2.569 2.754-4.378 3.524a.958.958 0 01-1.251-.49.932.932 0 01.496-1.232c2.014-.857 3.377-2.592 4.956-4.602.888-1.13 1.85-2.353 3.037-3.572-3.042-.68-4.688-2.928-4.688-6.499 0-.517.426-.937.952-.937 3.733 0 6.043 1.718 6.657 4.886 4.422-3.246 11.455-5.923 24.43-5.923 3.257 0 5.986 2.364 7.89 6.837 1.54 3.617 2.424 8.394 2.424 13.107 0 2.22-.23 4.269-.678 6.087 3.451.253 6.24 2.884 6.679 6.23C64.14 51.402 65 52.328 65 53.449c0 1.896-1.567 3.438-3.492 3.438zm-59.286-3.75a.315.315 0 00-.318.312c0 .862.712 1.563 1.587 1.563h58.017c.875 0 1.587-.701 1.587-1.563a.315.315 0 00-.317-.312H23.465c-.526 0-.952-.42-.952-.938s.426-.938.952-.938h3.685c-.45-2.475-2.654-4.36-5.296-4.36-2.642 0-4.845 1.885-5.296 4.36h3.098c.526 0 .953.42.953.938s-.427.938-.953.938H2.222zM53.13 51.26h7.977c-.451-2.475-2.655-4.36-5.296-4.36h-.016a13.839 13.839 0 01-1.132 2.4 9.764 9.764 0 01-1.533 1.96zm-49.237 0h10.592c-.45-2.475-2.654-4.36-5.296-4.36-2.642 0-4.845 1.885-5.296 4.36zm29.158-3.852c-2.348.259-3.597 1.489-3.86 3.8 2.348-.258 3.597-1.488 3.86-3.8zM17.7 32.38l2.842 2.798 4.077-4.015-3.146-3.098c-1.465 1.378-2.588 2.807-3.635 4.14-.046.06-.092.117-.138.175zm5.21-5.552l3.055 3.01 4.078-4.016-2.008-1.977a24.55 24.55 0 00-1.87.882 21.217 21.217 0 00-3.255 2.102zm-6.273-4.85c.263 2.31 1.512 3.541 3.86 3.8-.263-2.312-1.512-3.542-3.86-3.8zM46.72 43.704c-1.602 0-2.857-1.647-2.857-3.75 0-2.103 1.255-3.75 2.857-3.75 1.601 0 2.856 1.647 2.856 3.75 0 2.103-1.255 3.75-2.856 3.75zm0-5.625c-.389 0-.952.73-.952 1.875s.563 1.875.952 1.875.952-.73.952-1.875-.564-1.875-.952-1.875zm-2.288-20.94a.957.957 0 01-.673-.275c-2.933-2.889-2.933-6.07 0-8.958 2.184-2.15 2.184-4.155 0-6.305a.928.928 0 010-1.326.963.963 0 011.346 0c2.933 2.888 2.933 6.07 0 8.957-2.184 2.151-2.184 4.155 0 6.306a.927.927 0 010 1.326.957.957 0 01-.673.274zm-11.426 0a.956.956 0 01-.673-.275c-2.933-2.889-2.933-6.07 0-8.958 2.185-2.15 2.185-4.155 0-6.305a.927.927 0 010-1.326.963.963 0 011.347 0c2.933 2.888 2.933 6.07 0 8.957-2.185 2.151-2.185 4.155 0 6.306a.927.927 0 010 1.326.957.957 0 01-.674.274zm-11.425 0a.957.957 0 01-.673-.275c-2.933-2.889-2.933-6.07 0-8.958 2.184-2.15 2.184-4.155 0-6.305a.928.928 0 010-1.326.962.962 0 011.346 0c2.933 2.888 2.933 6.07 0 8.957-2.184 2.151-2.184 4.155 0 6.306a.927.927 0 010 1.326.957.957 0 01-.673.274z" fill="#BDA180"/></svg>